<svg width="366" height="157" viewBox="0 0 366 157" fill="none" xmlns="http://www.w3.org/2000/svg">
<rect width="366" height="157" fill="none"/>
<rect width="100" height="100" transform="translate(29 24)" fill="#001EFF"/>
<path d="M74.15 74.45L63.55 54.1H70.9L77.6 66.95L84.2 54.1H91.5L81 74.45V90H74.15V74.45Z" fill="white"/>
<rect x="88" y="84" width="7" height="6" fill="white"/>
<path d="M162.365 51.895L150.705 29.51H158.79L166.16 43.645L173.42 29.51H181.45L169.9 51.895V69H162.365V51.895ZM202.928 69V65.92C200.343 68.45 197.593 69.77 193.908 69.77C186.483 69.77 179.993 63.39 179.993 54.425C179.993 45.295 186.153 39.025 193.743 39.025C197.263 39.025 200.288 40.345 202.928 42.985V39.795H210.243V69H202.928ZM195.228 45.735C190.388 45.735 187.363 49.585 187.363 54.37C187.363 59.375 190.663 63.06 195.228 63.06C199.738 63.06 203.258 59.65 203.258 54.315C203.258 49.2 199.848 45.735 195.228 45.735ZM222.242 39.795V43.48C223.617 40.455 225.982 39.025 228.402 39.025C229.942 39.025 230.877 39.465 231.592 39.795L229.337 46.065C228.787 45.79 227.962 45.46 227.192 45.46C225.102 45.46 223.452 47.88 223.287 52.17C223.232 53.765 223.232 55.58 223.232 57.175V69H215.917V39.795H222.242ZM234.524 69V28.52H241.839V69H234.524ZM270.067 69V65.92C267.482 68.45 264.732 69.77 261.047 69.77C253.622 69.77 247.132 63.39 247.132 54.425C247.132 45.295 253.292 39.025 260.882 39.025C264.402 39.025 267.427 40.345 270.067 42.985V39.795H277.382V69H270.067ZM262.367 45.735C257.527 45.735 254.502 49.585 254.502 54.37C254.502 59.375 257.802 63.06 262.367 63.06C266.877 63.06 270.397 59.65 270.397 54.315C270.397 49.2 266.987 45.735 262.367 45.735ZM150.1 113.41L156.425 109.615C158.24 113.025 160.33 114.785 162.97 114.785C165.5 114.785 167.535 113.135 167.535 111.1C167.535 109.67 166.6 108.02 165.005 106.7C156.81 99.825 151.97 96.085 151.97 90.475C151.97 84.865 156.865 80.52 162.805 80.52C167.81 80.52 171.11 83.215 174.245 86.845L168.635 91.795C166.765 89.155 164.84 87.725 162.695 87.725C160.715 87.725 159.34 88.88 159.34 90.475C159.34 92.015 160.495 93.005 161.65 93.995C169.02 100.485 174.905 103.565 174.905 110.77C174.905 117.37 169.955 121.99 162.805 121.99C157.03 121.99 153.015 119.185 150.1 113.41ZM182.139 91.795V81.015H189.454V91.795H193.799V98.065H189.454V121H182.139V98.065H178.399V91.795H182.139ZM197.803 105.16V91.795H205.118V107.03C205.118 112.255 206.768 115.005 210.618 115.005C214.523 115.005 216.118 112.31 216.118 107.36V91.795H223.433V105.27C223.433 110.66 223.103 114.62 220.023 118.03C217.713 120.615 214.688 121.715 210.618 121.715C203.578 121.715 199.233 118.14 198.078 111.32C197.693 108.955 197.803 107.58 197.803 105.16ZM252.342 121V117.92C249.757 120.45 247.007 121.77 243.322 121.77C235.897 121.77 229.407 115.39 229.407 106.425C229.407 97.295 235.567 91.025 243.157 91.025C246.677 91.025 249.702 92.345 252.342 94.985V80.52H259.657V121H252.342ZM244.642 97.735C239.802 97.735 236.777 101.585 236.777 106.37C236.777 111.375 240.077 115.06 244.642 115.06C249.152 115.06 252.672 111.65 252.672 106.315C252.672 101.2 249.262 97.735 244.642 97.735ZM266.321 121V91.795H273.636V121H266.321ZM269.951 79.75C272.591 79.75 274.626 81.95 274.626 84.59C274.626 87.175 272.536 89.265 269.951 89.265C267.256 89.265 265.276 86.9 265.276 84.205C265.276 81.675 267.421 79.75 269.951 79.75ZM293.998 91.025C302.523 91.025 309.508 97.735 309.508 106.37C309.508 114.84 302.963 121.77 294.053 121.77C285.583 121.77 278.873 115.005 278.873 106.425C278.873 97.57 286.023 91.025 293.998 91.025ZM294.108 97.955C289.543 97.955 286.243 101.53 286.243 106.37C286.243 111.32 289.378 114.84 294.108 114.84C298.618 114.84 302.138 111.54 302.138 106.425C302.138 101.475 298.893 97.955 294.108 97.955ZM323.734 109.615L321.259 108.35C316.584 105.985 314.219 103.125 314.219 99.44C314.219 94.875 318.069 91.025 323.679 91.025C327.474 91.025 330.939 92.73 333.304 95.865L328.794 100.43C327.144 98.78 325.494 97.735 323.734 97.735C322.249 97.735 321.094 98.34 321.094 99.495C321.094 100.595 322.139 101.09 323.734 101.915L326.429 103.29C331.269 105.765 333.854 108.295 333.854 112.64C333.854 117.865 329.729 121.77 323.349 121.77C319.114 121.77 315.649 120.065 313.119 116.765L317.629 111.815C319.334 113.795 321.809 115.225 323.734 115.225C325.549 115.225 326.979 114.18 326.979 112.86C326.979 111.595 325.769 110.66 323.734 109.615Z" fill="#001EFF"/>
</svg>
